<svg width="519" height="139" viewBox="0 0 519 139" fill="none" xmlns="http://www.w3.org/2000/svg">
<path d="M99.39 120.72L100.323 120.359L100.322 120.358L99.39 120.72ZM111.12 131.6H112.12V130.643L111.164 130.601L111.12 131.6ZM111.12 135L111.045 135.997L112.12 136.078V135H111.12ZM71.17 135H70.17V136.074L71.2412 135.997L71.17 135ZM71.17 131.6L71.1174 130.601L70.17 130.651V131.6H71.17ZM80.35 130.07L80.7508 130.986L80.7634 130.981L80.7758 130.975L80.35 130.07ZM81.2 117.32L80.2627 117.669L80.267 117.68L80.2715 117.691L81.2 117.32ZM70.83 89.44L71.7673 89.0914L71.525 88.44H70.83V89.44ZM29.69 89.44V88.44H29.0046L28.7573 89.0793L29.69 89.44ZM22.72 107.46L21.7873 107.099L21.7847 107.106L21.7823 107.113L22.72 107.46ZM22.89 129.05L22.3353 129.882L22.3442 129.888L22.3531 129.894L22.89 129.05ZM34.11 131.6H35.11V130.622L34.1327 130.6L34.11 131.6ZM34.11 135L34.0574 135.999L35.11 136.054V135H34.11ZM1.81 135H0.81V136.105L1.9095 135.995L1.81 135ZM1.81 131.6L1.57663 130.628L0.81 130.812V131.6H1.81ZM15.24 116.81L14.3076 116.448L14.3073 116.449L15.24 116.81ZM55.19 13.79V12.79H54.5052L54.2577 13.4284L55.19 13.79ZM57.91 13.79L58.8423 13.4283L58.5947 12.79H57.91V13.79ZM69.47 86.04V87.04H70.9124L70.4065 85.6892L69.47 86.04ZM50.43 35.21L51.3665 34.8592L50.4383 32.3813L49.4956 34.8537L50.43 35.21ZM31.05 86.04L30.1156 85.6837L29.5985 87.04H31.05V86.04ZM98.4574 121.081C101.242 128.275 105.4 132.347 111.076 132.599L111.164 130.601C106.64 130.4 102.978 127.218 100.323 120.359L98.4574 121.081ZM110.12 131.6V135H112.12V131.6H110.12ZM111.195 134.003C106.626 133.66 100.534 133.49 92.93 133.49V135.49C100.512 135.49 106.548 135.66 111.045 135.997L111.195 134.003ZM92.93 133.49C83.1787 133.49 75.8959 133.66 71.0988 134.003L71.2412 135.997C75.9641 135.66 83.188 135.49 92.93 135.49V133.49ZM72.17 135V131.6H70.17V135H72.17ZM71.2226 132.599C75.5414 132.371 78.7592 131.857 80.7508 130.986L79.9492 129.154C78.3141 129.869 75.412 130.375 71.1174 130.601L71.2226 132.599ZM80.7758 130.975C81.89 130.45 82.7742 129.704 83.3723 128.719C83.968 127.738 84.24 126.586 84.24 125.31H82.24C82.24 126.301 82.0304 127.075 81.6627 127.681C81.2974 128.283 80.7366 128.783 79.9242 129.165L80.7758 130.975ZM84.24 125.31C84.24 123.188 83.501 120.38 82.1285 116.949L80.2715 117.691C81.619 121.06 82.24 123.579 82.24 125.31H84.24ZM82.1373 116.971L71.7673 89.0914L69.8927 89.7886L80.2627 117.669L82.1373 116.971ZM70.83 88.44H29.69V90.44H70.83V88.44ZM28.7573 89.0793L21.7873 107.099L23.6527 107.821L30.6227 89.8008L28.7573 89.0793ZM21.7823 107.113C19.5085 113.252 18.32 118.039 18.32 121.4H20.32C20.32 118.415 21.3981 113.908 23.6577 107.807L21.7823 107.113ZM18.32 121.4C18.32 125.161 19.6117 128.066 22.3353 129.882L23.4447 128.218C21.4083 126.86 20.32 124.666 20.32 121.4H18.32ZM22.3531 129.894C25.0729 131.624 29.0293 132.485 34.0873 132.6L34.1327 130.6C29.2174 130.489 25.6938 129.649 23.4269 128.206L22.3531 129.894ZM33.11 131.6V135H35.11V131.6H33.11ZM34.1626 134.001C27.6848 133.66 21.1506 133.49 14.56 133.49V135.49C21.1161 135.49 27.6152 135.66 34.0574 135.999L34.1626 134.001ZM14.56 133.49C9.44123 133.49 5.15536 133.66 1.7105 134.005L1.9095 135.995C5.26464 135.66 9.47877 135.49 14.56 135.49V133.49ZM2.81 135V131.6H0.81V135H2.81ZM2.04337 132.572C8.17889 131.1 12.8366 125.798 16.1727 117.171L14.3073 116.449C11.0701 124.822 6.77444 129.38 1.57663 130.628L2.04337 132.572ZM16.1724 117.172L56.1224 14.1515L54.2577 13.4284L14.3076 116.448L16.1724 117.172ZM55.19 14.79H57.91V12.79H55.19V14.79ZM56.9777 14.1516L98.4577 121.082L100.322 120.358L58.8423 13.4283L56.9777 14.1516ZM70.4065 85.6892L51.3665 34.8592L49.4935 35.5608L68.5335 86.3908L70.4065 85.6892ZM49.4956 34.8537L30.1156 85.6837L31.9844 86.3963L51.3644 35.5663L49.4956 34.8537ZM31.05 87.04H69.47V85.04H31.05V87.04ZM142.04 8.17999L141.333 8.8871L142.04 8.17999ZM142.04 23.48L141.333 22.7729L142.04 23.48ZM126.74 23.48L126.033 24.1871L126.74 23.48ZM126.74 8.17999L127.447 8.8871L126.74 8.17999ZM146.12 128.88L145.435 129.608L145.446 129.619L145.458 129.63L146.12 128.88ZM156.15 131.43H157.15V130.43H156.15V131.43ZM156.15 135L156.107 135.999L157.15 136.044V135H156.15ZM115.01 135H114.01V136.044L115.054 135.999L115.01 135ZM115.01 131.43V130.43H114.01V131.43H115.01ZM125.04 128.88L125.702 129.63L125.714 129.619L125.725 129.608L125.04 128.88ZM125.04 54.59L125.817 53.9608L125.04 54.59ZM115.01 51.02H114.01V52.02H115.01V51.02ZM115.01 47.45L115.103 46.4544L114.01 46.3519V47.45H115.01ZM143.23 45.58H144.23V44.1818L142.907 44.6336L143.23 45.58ZM134.39 5.94999C137.062 5.94999 139.36 6.91429 141.333 8.8871L142.747 7.47289C140.413 5.13903 137.612 3.94999 134.39 3.94999V5.94999ZM141.333 8.8871C143.306 10.8599 144.27 13.1583 144.27 15.83H146.27C146.27 12.6084 145.081 9.80674 142.747 7.47289L141.333 8.8871ZM144.27 15.83C144.27 18.5017 143.306 20.8001 141.333 22.7729L142.747 24.1871C145.081 21.8532 146.27 19.0516 146.27 15.83H144.27ZM141.333 22.7729C139.36 24.7457 137.062 25.71 134.39 25.71V27.71C137.612 27.71 140.413 26.521 142.747 24.1871L141.333 22.7729ZM134.39 25.71C131.718 25.71 129.42 24.7457 127.447 22.7729L126.033 24.1871C128.367 26.521 131.168 27.71 134.39 27.71V25.71ZM127.447 22.7729C125.474 20.8001 124.51 18.5017 124.51 15.83H122.51C122.51 19.0516 123.699 21.8532 126.033 24.1871L127.447 22.7729ZM124.51 15.83C124.51 13.1583 125.474 10.8599 127.447 8.8871L126.033 7.47289C123.699 9.80674 122.51 12.6084 122.51 15.83H124.51ZM127.447 8.8871C129.42 6.91429 131.718 5.94999 134.39 5.94999V3.94999C131.168 3.94999 128.367 5.13903 126.033 7.47289L127.447 8.8871ZM142.23 119.19C142.23 123.918 143.2 127.505 145.435 129.608L146.805 128.152C145.187 126.629 144.23 123.755 144.23 119.19H142.23ZM145.458 129.63C147.67 131.581 151.33 132.43 156.15 132.43V130.43C151.45 130.43 148.424 129.579 146.782 128.13L145.458 129.63ZM155.15 131.43V135H157.15V131.43H155.15ZM156.194 134.001C145.771 133.548 138.892 133.32 135.58 133.32V135.32C138.841 135.32 145.675 135.546 156.107 135.999L156.194 134.001ZM135.58 133.32C132.268 133.32 125.389 133.548 114.967 134.001L115.054 135.999C125.485 135.546 132.319 135.32 135.58 135.32V133.32ZM116.01 135V131.43H114.01V135H116.01ZM115.01 132.43C119.83 132.43 123.49 131.581 125.702 129.63L124.378 128.13C122.737 129.579 119.71 130.43 115.01 130.43V132.43ZM125.725 129.608C127.96 127.505 128.93 123.918 128.93 119.19H126.93C126.93 123.755 125.973 126.629 124.355 128.152L125.725 129.608ZM128.93 119.19V65.98H126.93V119.19H128.93ZM128.93 65.98C128.93 60.684 127.959 56.6065 125.817 53.9608L124.263 55.2192C125.974 57.3335 126.93 60.8493 126.93 65.98H128.93ZM125.817 53.9608C123.615 51.2408 119.903 50.02 115.01 50.02V52.02C119.637 52.02 122.611 53.1792 124.263 55.2192L125.817 53.9608ZM116.01 51.02V47.45H114.01V51.02H116.01ZM114.917 48.4456C118.572 48.7883 122.117 48.96 125.55 48.96V46.96C122.183 46.96 118.701 46.7917 115.103 46.4544L114.917 48.4456ZM125.55 48.96C132.755 48.96 138.767 48.1607 143.553 46.5263L142.907 44.6336C138.4 46.1726 132.625 46.96 125.55 46.96V48.96ZM142.23 45.58V119.19H144.23V45.58H142.23ZM228.735 48.98L228.058 49.7159L228.065 49.7225L228.072 49.729L228.735 48.98ZM230.435 66.15L229.67 65.5059L229.667 65.5098L230.435 66.15ZM217.005 66.83L216.322 67.5611L216.334 67.572L216.346 67.5826L217.005 66.83ZM220.235 51.19L220.76 52.0408L221.661 51.4842L221.054 50.6165L220.235 51.19ZM204.595 54.76L205.279 55.4895L205.285 55.4839L205.291 55.4782L204.595 54.76ZM196.095 67.34L197.02 67.7186L196.095 67.34ZM197.455 128.37L196.886 129.192L196.893 129.197L196.9 129.202L197.455 128.37ZM211.055 131.43H212.055V130.43H211.055V131.43ZM211.055 135L211.013 135.999L212.055 136.043V135H211.055ZM206.975 134.83L207.016 133.831L207.004 133.83L206.975 134.83ZM164.815 135H163.815V136.044L164.858 135.999L164.815 135ZM164.815 131.43V130.43H163.815V131.43H164.815ZM174.845 128.88L175.506 129.63L175.518 129.619L175.53 129.608L174.845 128.88ZM174.845 54.59L175.622 53.9608L174.845 54.59ZM164.815 51.02H163.815V52.02H164.815V51.02ZM164.815 47.45L164.908 46.4544L163.815 46.3519V47.45H164.815ZM193.035 45.58H194.035V44.1818L192.712 44.6336L193.035 45.58ZM193.035 66.83H192.035L193.976 67.1687L193.035 66.83ZM202.725 51.7L202.027 50.9839L202.018 50.9929L202.725 51.7ZM217.685 46.07C222.015 46.07 225.441 47.3086 228.058 49.7159L229.412 48.2441C226.362 45.438 222.422 44.07 217.685 44.07V46.07ZM228.072 49.729C230.817 52.157 232.155 55.0629 232.155 58.5H234.155C234.155 54.4571 232.546 51.0163 229.397 48.231L228.072 49.729ZM232.155 58.5C232.155 61.2229 231.324 63.5418 229.67 65.5059L231.2 66.7941C233.172 64.4516 234.155 61.6704 234.155 58.5H232.155ZM229.667 65.5098C228.179 67.295 226.151 68.21 223.465 68.21V70.21C226.671 70.21 229.291 69.085 231.203 66.7902L229.667 65.5098ZM223.465 68.21C221.204 68.21 219.287 67.4986 217.663 66.0774L216.346 67.5826C218.349 69.3347 220.738 70.21 223.465 70.21V68.21ZM217.687 66.0989C216.224 64.7338 215.455 62.8641 215.455 60.37H213.455C213.455 63.3159 214.385 65.7529 216.322 67.5611L217.687 66.0989ZM215.455 60.37C215.455 57.0539 217.13 54.2833 220.76 52.0408L219.709 50.3392C215.633 52.8567 213.455 56.206 213.455 60.37H215.455ZM221.054 50.6165C220.044 49.1735 218.522 48.49 216.665 48.49V50.49C217.98 50.49 218.839 50.9398 219.416 51.7635L221.054 50.6165ZM216.665 48.49C211.948 48.49 207.683 50.3755 203.899 54.0418L205.291 55.4782C208.759 52.1178 212.542 50.49 216.665 50.49V48.49ZM203.911 54.0305C200.171 57.5367 197.259 61.853 195.169 66.9614L197.02 67.7186C199.011 62.8536 201.765 58.7833 205.279 55.4895L203.911 54.0305ZM195.169 66.9614C193.091 72.0426 192.035 76.8751 192.035 81.45H194.035C194.035 77.1849 195.019 72.6107 197.02 67.7186L195.169 66.9614ZM192.035 81.45V117.49H194.035V81.45H192.035ZM192.035 117.49C192.035 122.873 193.561 126.89 196.886 129.192L198.024 127.548C195.456 125.77 194.035 122.534 194.035 117.49H192.035ZM196.9 129.202C200.198 131.401 204.964 132.43 211.055 132.43V130.43C205.132 130.43 200.831 129.419 198.009 127.538L196.9 129.202ZM210.055 131.43V135H212.055V131.43H210.055ZM211.096 134.001L207.016 133.831L206.933 135.829L211.013 135.999L211.096 134.001ZM207.004 133.83C195.449 133.491 188.066 133.32 184.875 133.32V135.32C188.03 135.32 195.381 135.489 206.945 135.83L207.004 133.83ZM184.875 133.32C181.902 133.32 175.192 133.548 164.771 134.001L164.858 135.999C175.291 135.545 181.954 135.32 184.875 135.32V133.32ZM165.815 135V131.43H163.815V135H165.815ZM164.815 132.43C169.635 132.43 173.295 131.581 175.506 129.63L174.183 128.13C172.541 129.579 169.515 130.43 164.815 130.43V132.43ZM175.53 129.608C177.765 127.505 178.735 123.918 178.735 119.19H176.735C176.735 123.755 175.778 126.629 174.159 128.152L175.53 129.608ZM178.735 119.19V65.98H176.735V119.19H178.735ZM178.735 65.98C178.735 60.684 177.764 56.6065 175.622 53.9608L174.068 55.2192C175.779 57.3335 176.735 60.8493 176.735 65.98H178.735ZM175.622 53.9608C173.42 51.2408 169.708 50.02 164.815 50.02V52.02C169.442 52.02 172.416 53.1792 174.068 55.2192L175.622 53.9608ZM165.815 51.02V47.45H163.815V51.02H165.815ZM164.721 48.4456C168.377 48.7883 171.921 48.96 175.355 48.96V46.96C171.988 46.96 168.506 46.7917 164.908 46.4544L164.721 48.4456ZM175.355 48.96C182.559 48.96 188.572 48.1607 193.358 46.5263L192.712 44.6336C188.205 46.1726 182.43 46.96 175.355 46.96V48.96ZM192.035 45.58V66.83H194.035V45.58H192.035ZM193.976 67.1687C195.964 61.6458 199.112 56.7271 203.432 52.4071L202.018 50.9929C197.498 55.5129 194.186 60.6808 192.094 66.4913L193.976 67.1687ZM203.423 52.416C207.802 48.146 212.548 46.07 217.685 46.07V44.07C211.941 44.07 206.714 46.414 202.027 50.984L203.423 52.416ZM310.978 56.97L310.175 57.5663L310.18 57.5736L310.978 56.97ZM314.888 116.47L313.99 116.029L314.888 116.47ZM301.118 132.11L300.598 131.255L300.591 131.26L301.118 132.11ZM269.838 134.83L269.434 135.745L269.444 135.749L269.838 134.83ZM259.638 127.52L260.37 126.84L259.721 126.14L258.992 126.756L259.638 127.52ZM247.568 137.72L247.187 138.645L247.749 138.876L248.213 138.484L247.568 137.72ZM244.678 136.53L243.715 136.26L243.475 137.116L244.297 137.455L244.678 136.53ZM242.978 10.9L242.2 11.5292L242.978 10.9ZM232.948 7.32999H231.948V8.32999H232.948V7.32999ZM232.948 3.76L233.041 2.76436L231.948 2.66187V3.76H232.948ZM261.168 1.88999H262.168V0.491837L260.844 0.943642L261.168 1.88999ZM261.168 63.26H260.168L262.086 63.6561L261.168 63.26ZM271.878 49.83L271.323 48.9979L271.314 49.0042L271.878 49.83ZM297.718 123.27L296.844 122.783L296.841 122.788L297.718 123.27ZM298.398 60.37L299.292 59.9228L298.398 60.37ZM269.668 55.78L270.342 56.518L270.348 56.5128L270.354 56.5076L269.668 55.78ZM261.168 71.25L260.198 71.0036L260.168 71.1249V71.25H261.168ZM261.168 125.14H260.168V125.542L260.446 125.832L261.168 125.14ZM270.178 131.43L269.78 132.348L269.793 132.353L269.806 132.358L270.178 131.43ZM287.688 46.07C296.995 46.07 304.464 49.8792 310.175 57.5663L311.78 56.3737C305.704 48.1941 297.647 44.07 287.688 44.07V46.07ZM310.18 57.5736C316.004 65.2652 318.988 76.4636 318.988 91.31H320.988C320.988 76.2364 317.965 64.5414 311.775 56.3664L310.18 57.5736ZM318.988 91.31C318.988 101.058 317.307 109.286 313.99 116.029L315.785 116.911C319.269 109.828 320.988 101.282 320.988 91.31H318.988ZM313.99 116.029C310.662 122.795 306.194 127.854 300.598 131.255L301.637 132.965C307.602 129.339 312.313 123.971 315.785 116.911L313.99 116.029ZM300.591 131.26C295.091 134.67 288.929 136.38 282.078 136.38V138.38C289.28 138.38 295.811 136.577 301.645 132.96L300.591 131.26ZM282.078 136.38C278.024 136.38 274.077 135.559 270.232 133.911L269.444 135.749C273.531 137.501 277.745 138.38 282.078 138.38V136.38ZM270.241 133.915C266.516 132.272 263.227 129.916 260.37 126.84L258.905 128.2C261.941 131.471 265.453 133.988 269.434 135.745L270.241 133.915ZM258.992 126.756L246.922 136.956L248.213 138.484L260.283 128.284L258.992 126.756ZM247.948 136.795L245.058 135.605L244.297 137.455L247.187 138.645L247.948 136.795ZM245.641 136.8C246.464 133.859 246.868 130.478 246.868 126.67H244.868C244.868 130.342 244.478 133.535 243.715 136.26L245.641 136.8ZM246.868 126.67V22.29H244.868V126.67H246.868ZM246.868 22.29C246.868 16.994 245.897 12.9165 243.755 10.2708L242.2 11.5292C243.912 13.6435 244.868 17.1593 244.868 22.29H246.868ZM243.755 10.2708C241.553 7.55079 237.841 6.32999 232.948 6.32999V8.32999C237.574 8.32999 240.549 9.4892 242.2 11.5292L243.755 10.2708ZM233.948 7.32999V3.76H231.948V7.32999H233.948ZM232.854 4.75563C236.51 5.09833 240.054 5.26999 243.488 5.26999V3.26999C240.121 3.26999 236.639 3.10165 233.041 2.76436L232.854 4.75563ZM243.488 5.26999C250.692 5.26999 256.704 4.4707 261.491 2.83634L260.844 0.943642C256.337 2.48261 250.563 3.26999 243.488 3.26999V5.26999ZM260.168 1.88999V63.26H262.168V1.88999H260.168ZM262.086 63.6561C264.513 58.0287 267.969 53.71 272.442 50.6558L271.314 49.0042C266.492 52.2967 262.809 56.9313 260.249 62.8639L262.086 63.6561ZM272.432 50.662C277.026 47.5994 282.103 46.07 287.688 46.07V44.07C281.712 44.07 276.249 45.7139 271.323 48.9979L272.432 50.662ZM280.718 134.47C284.668 134.47 288.166 133.584 291.177 131.777C294.187 129.972 296.654 127.28 298.594 123.752L296.841 122.788C295.042 126.06 292.805 128.468 290.148 130.062C287.492 131.656 284.361 132.47 280.718 132.47V134.47ZM298.591 123.757C302.571 116.617 304.498 105.755 304.498 91.31H302.498C302.498 105.652 300.571 116.096 296.844 122.783L298.591 123.757ZM304.498 91.31C304.498 77.4354 302.797 66.9333 299.292 59.9228L297.503 60.8172C300.798 67.4067 302.498 77.5313 302.498 91.31H304.498ZM299.292 59.9228C297.53 56.3991 295.269 53.6987 292.484 51.8824C289.694 50.0632 286.439 49.17 282.758 49.17V51.17C286.103 51.17 288.967 51.9768 291.391 53.5576C293.82 55.1413 295.865 57.5409 297.503 60.8172L299.292 59.9228ZM282.758 49.17C277.705 49.17 273.105 51.1648 268.982 55.0524L270.354 56.5076C274.164 52.9152 278.29 51.17 282.758 51.17V49.17ZM268.993 55.042C264.846 58.833 261.933 64.181 260.198 71.0036L262.137 71.4964C263.802 64.9456 266.555 59.9803 270.342 56.518L268.993 55.042ZM260.168 71.25V125.14H262.168V71.25H260.168ZM260.446 125.832C263.143 128.646 266.256 130.82 269.78 132.348L270.575 130.512C267.299 129.093 264.406 127.074 261.89 124.448L260.446 125.832ZM269.806 132.358C273.323 133.765 276.962 134.47 280.718 134.47V132.47C277.219 132.47 273.832 131.815 270.549 130.502L269.806 132.358ZM408.129 51.53L407.403 52.2177L407.404 52.2187L408.129 51.53ZM412.719 60.03L413.685 59.7723L412.719 60.03ZM416.969 128.88L416.283 129.608L416.295 129.619L416.307 129.63L416.969 128.88ZM426.999 131.43H427.999V130.43H426.999V131.43ZM426.999 135L426.955 135.999L427.999 136.044V135H426.999ZM387.559 135H386.559V136.049L387.606 135.999L387.559 135ZM387.559 131.43V130.43H386.559V131.43H387.559ZM396.229 128.88L395.499 128.196L395.498 128.198L396.229 128.88ZM396.059 55.61L395.176 56.0806L395.18 56.0869L395.183 56.0931L396.059 55.61ZM372.599 54.59L373.199 55.39L372.599 54.59ZM364.099 65.81L363.179 65.4161L363.175 65.427L364.099 65.81ZM363.589 128.88L362.836 129.538L362.858 129.564L362.882 129.587L363.589 128.88ZM372.429 131.43H373.429V130.43H372.429V131.43ZM372.429 135L372.381 135.999L373.429 136.049V135H372.429ZM332.989 135H331.989V136.044L333.032 135.999L332.989 135ZM332.989 131.43V130.43H331.989V131.43H332.989ZM343.019 128.88L343.68 129.63L343.692 129.619L343.704 129.608L343.019 128.88ZM343.019 54.59L343.796 53.9608L343.019 54.59ZM332.989 51.02H331.989V52.02H332.989V51.02ZM332.989 47.45L333.082 46.4544L331.989 46.3519V47.45H332.989ZM361.209 45.58H362.209V44.1818L360.885 44.6336L361.209 45.58ZM361.209 65.64H360.209L362.14 66.0038L361.209 65.64ZM372.939 50L373.475 50.8437L373.48 50.8406L372.939 50ZM390.109 46.07C397.864 46.07 403.569 48.171 407.403 52.2177L408.855 50.8423C404.528 46.2757 398.22 44.07 390.109 44.07V46.07ZM407.404 52.2187C409.428 54.3496 410.883 57.0287 411.752 60.2877L413.685 59.7723C412.741 56.2313 411.136 53.2437 408.854 50.8412L407.404 52.2187ZM411.752 60.2877C412.627 63.5673 413.079 68.059 413.079 73.8H415.079C415.079 67.981 414.624 63.2927 413.685 59.7723L411.752 60.2877ZM413.079 73.8V119.19H415.079V73.8H413.079ZM413.079 119.19C413.079 123.918 414.048 127.505 416.283 129.608L417.654 128.152C416.036 126.629 415.079 123.755 415.079 119.19H413.079ZM416.307 129.63C418.518 131.581 422.179 132.43 426.999 132.43V130.43C422.298 130.43 419.272 129.579 417.63 128.13L416.307 129.63ZM425.999 131.43V135H427.999V131.43H425.999ZM427.042 134.001C416.62 133.548 409.798 133.32 406.599 133.32V135.32C409.746 135.32 416.523 135.546 426.955 135.999L427.042 134.001ZM406.599 133.32C403.397 133.32 397.027 133.548 387.511 134.001L387.606 135.999C397.13 135.545 403.453 135.32 406.599 135.32V133.32ZM388.559 135V131.43H386.559V135H388.559ZM387.559 132.43C391.824 132.43 395.079 131.578 396.96 129.562L395.498 128.198C394.205 129.582 391.68 130.43 387.559 130.43V132.43ZM396.958 129.564C398.931 127.46 399.779 123.894 399.779 119.19H397.779C397.779 123.779 396.926 126.674 395.499 128.196L396.958 129.564ZM399.779 119.19V70.06H397.779V119.19H399.779ZM399.779 70.06C399.779 63.6469 398.867 58.6309 396.934 55.1269L395.183 56.0931C396.876 59.1625 397.779 63.7798 397.779 70.06H399.779ZM396.941 55.1394C394.882 51.279 390.749 49.51 385.009 49.51V51.51C390.375 51.51 393.608 53.141 395.176 56.0806L396.941 55.1394ZM385.009 49.51C380.151 49.51 375.803 50.9367 371.999 53.79L373.199 55.39C376.648 52.8033 380.572 51.51 385.009 51.51V49.51ZM371.999 53.79C368.213 56.6293 365.278 60.5184 363.179 65.4161L365.018 66.2039C366.999 61.5816 369.731 57.9907 373.199 55.39L371.999 53.79ZM363.175 65.427C361.191 70.2118 360.209 75.558 360.209 81.45H362.209C362.209 75.782 363.153 70.7015 365.022 66.193L363.175 65.427ZM360.209 81.45V119.19H362.209V81.45H360.209ZM360.209 119.19C360.209 123.884 360.996 127.436 362.836 129.538L364.341 128.221C363.007 126.697 362.209 123.79 362.209 119.19H360.209ZM362.882 129.587C364.868 131.573 368.153 132.43 372.429 132.43V130.43C368.318 130.43 365.71 129.587 364.296 128.173L362.882 129.587ZM371.429 131.43V135H373.429V131.43H371.429ZM372.476 134.001C362.96 133.548 356.59 133.32 353.389 133.32V135.32C356.534 135.32 362.857 135.545 372.381 135.999L372.476 134.001ZM353.389 133.32C350.189 133.32 343.367 133.548 332.945 134.001L333.032 135.999C343.464 135.546 350.241 135.32 353.389 135.32V133.32ZM333.989 135V131.43H331.989V135H333.989ZM332.989 132.43C337.808 132.43 341.469 131.581 343.68 129.63L342.357 128.13C340.715 129.579 337.689 130.43 332.989 130.43V132.43ZM343.704 129.608C345.939 127.505 346.909 123.918 346.909 119.19H344.909C344.909 123.755 343.952 126.629 342.333 128.152L343.704 129.608ZM346.909 119.19V65.98H344.909V119.19H346.909ZM346.909 65.98C346.909 60.684 345.938 56.6065 343.796 53.9608L342.241 55.2192C343.953 57.3335 344.909 60.8493 344.909 65.98H346.909ZM343.796 53.9608C341.594 51.2408 337.882 50.02 332.989 50.02V52.02C337.615 52.02 340.59 53.1792 342.241 55.2192L343.796 53.9608ZM333.989 51.02V47.45H331.989V51.02H333.989ZM332.895 48.4456C336.551 48.7883 340.095 48.96 343.529 48.96V46.96C340.162 46.96 336.68 46.7917 333.082 46.4544L332.895 48.4456ZM343.529 48.96C350.733 48.96 356.745 48.1607 361.532 46.5263L360.885 44.6336C356.378 46.1726 350.604 46.96 343.529 46.96V48.96ZM360.209 45.58V65.64H362.209V45.58H360.209ZM362.14 66.0038C364.921 58.8859 368.717 53.8716 373.475 50.8437L372.402 49.1563C367.187 52.475 363.163 57.8875 360.277 65.2761L362.14 66.0038ZM373.48 50.8406C378.411 47.6629 383.945 46.07 390.109 46.07V44.07C383.579 44.07 377.666 45.7637 372.397 49.1594L373.48 50.8406ZM508.204 56.97L507.401 57.5663L507.407 57.5736L508.204 56.97ZM512.114 116.47L511.217 116.029L512.114 116.47ZM498.344 132.11L497.825 131.255L497.817 131.26L498.344 132.11ZM467.064 134.83L466.66 135.745L466.67 135.749L467.064 134.83ZM456.864 127.52L457.597 126.84L456.948 126.14L456.219 126.756L456.864 127.52ZM444.794 137.72L444.413 138.645L444.975 138.876L445.44 138.484L444.794 137.72ZM441.904 136.53L440.941 136.26L440.702 137.116L441.523 137.455L441.904 136.53ZM440.204 10.9L439.427 11.5292L440.204 10.9ZM430.174 7.32999H429.174V8.32999H430.174V7.32999ZM430.174 3.76L430.267 2.76436L429.174 2.66187V3.76H430.174ZM458.394 1.88999H459.394V0.491837L458.071 0.943642L458.394 1.88999ZM458.394 63.26H457.394L459.312 63.6561L458.394 63.26ZM469.104 49.83L468.549 48.9979L468.54 49.0042L469.104 49.83ZM494.944 123.27L494.071 122.783L494.068 122.788L494.944 123.27ZM495.624 60.37L496.519 59.9228L495.624 60.37ZM466.894 55.78L467.569 56.518L467.575 56.5128L467.58 56.5076L466.894 55.78ZM458.394 71.25L457.425 71.0036L457.394 71.1249V71.25H458.394ZM458.394 125.14H457.394V125.542L457.672 125.832L458.394 125.14ZM467.404 131.43L467.007 132.348L467.02 132.353L467.033 132.358L467.404 131.43ZM484.914 46.07C494.222 46.07 501.691 49.8792 507.401 57.5663L509.007 56.3737C502.931 48.1941 494.873 44.07 484.914 44.07V46.07ZM507.407 57.5736C513.231 65.2652 516.214 76.4636 516.214 91.31H518.214C518.214 76.2364 515.191 64.5414 509.001 56.3664L507.407 57.5736ZM516.214 91.31C516.214 101.058 514.533 109.286 511.217 116.029L513.012 116.911C516.495 109.828 518.214 101.282 518.214 91.31H516.214ZM511.217 116.029C507.889 122.795 503.42 127.854 497.825 131.255L498.864 132.965C504.828 129.339 509.539 123.971 513.012 116.911L511.217 116.029ZM497.817 131.26C492.317 134.67 486.155 136.38 479.304 136.38V138.38C486.507 138.38 493.037 136.577 498.871 132.96L497.817 131.26ZM479.304 136.38C475.25 136.38 471.304 135.559 467.458 133.911L466.67 135.749C470.758 137.501 474.971 138.38 479.304 138.38V136.38ZM467.468 133.915C463.743 132.272 460.454 129.916 457.597 126.84L456.131 128.2C459.168 131.471 462.679 133.988 466.66 135.745L467.468 133.915ZM456.219 126.756L444.149 136.956L445.44 138.484L457.51 128.284L456.219 126.756ZM445.175 136.795L442.285 135.605L441.523 137.455L444.413 138.645L445.175 136.795ZM442.867 136.8C443.691 133.859 444.094 130.478 444.094 126.67H442.094C442.094 130.342 441.704 133.535 440.941 136.26L442.867 136.8ZM444.094 126.67V22.29H442.094V126.67H444.094ZM444.094 22.29C444.094 16.994 443.123 12.9165 440.981 10.2708L439.427 11.5292C441.138 13.6435 442.094 17.1593 442.094 22.29H444.094ZM440.981 10.2708C438.779 7.55079 435.067 6.32999 430.174 6.32999V8.32999C434.801 8.32999 437.775 9.4892 439.427 11.5292L440.981 10.2708ZM431.174 7.32999V3.76H429.174V7.32999H431.174ZM430.081 4.75563C433.736 5.09833 437.281 5.26999 440.714 5.26999V3.26999C437.347 3.26999 433.865 3.10165 430.267 2.76436L430.081 4.75563ZM440.714 5.26999C447.919 5.26999 453.931 4.4707 458.717 2.83634L458.071 0.943642C453.564 2.48261 447.79 3.26999 440.714 3.26999V5.26999ZM457.394 1.88999V63.26H459.394V1.88999H457.394ZM459.312 63.6561C461.74 58.0287 465.196 53.71 469.668 50.6558L468.54 49.0042C463.719 52.2967 460.035 56.9313 457.476 62.8639L459.312 63.6561ZM469.659 50.662C474.253 47.5994 479.329 46.07 484.914 46.07V44.07C478.939 44.07 473.476 45.7139 468.549 48.9979L469.659 50.662ZM477.944 134.47C481.895 134.47 485.393 133.584 488.404 131.777C491.413 129.972 493.88 127.28 495.82 123.752L494.068 122.788C492.268 126.06 490.032 128.468 487.375 130.062C484.719 131.656 481.587 132.47 477.944 132.47V134.47ZM495.818 123.757C499.797 116.617 501.724 105.755 501.724 91.31H499.724C499.724 105.652 497.798 116.096 494.071 122.783L495.818 123.757ZM501.724 91.31C501.724 77.4354 500.024 66.9333 496.519 59.9228L494.73 60.8172C498.024 67.4067 499.724 77.5313 499.724 91.31H501.724ZM496.519 59.9228C494.757 56.3991 492.495 53.6987 489.71 51.8824C486.921 50.0632 483.666 49.17 479.984 49.17V51.17C483.329 51.17 486.194 51.9768 488.618 53.5576C491.046 55.1413 493.092 57.5409 494.73 60.8172L496.519 59.9228ZM479.984 49.17C474.932 49.17 470.331 51.1648 466.208 55.0524L467.58 56.5076C471.39 52.9152 475.516 51.17 479.984 51.17V49.17ZM466.219 55.042C462.073 58.833 459.16 64.181 457.425 71.0036L459.363 71.4964C461.029 64.9456 463.782 59.9803 467.569 56.518L466.219 55.042ZM457.394 71.25V125.14H459.394V71.25H457.394ZM457.672 125.832C460.369 128.646 463.482 130.82 467.007 132.348L467.802 130.512C464.526 129.093 461.632 127.074 459.116 124.448L457.672 125.832ZM467.033 132.358C470.55 133.765 474.189 134.47 477.944 134.47V132.47C474.446 132.47 471.059 131.815 467.776 130.502L467.033 132.358Z" fill="white"/>
</svg>
